<svg width="25" height="24" viewBox="0 0 25 24" fill="none" xmlns="http://www.w3.org/2000/svg">
<path fill-rule="evenodd" clip-rule="evenodd" d="M12.0898 2C6.56984 2 2.08984 6.48 2.08984 12C2.08984 17.52 6.56984 22 12.0898 22C17.6098 22 22.0898 17.52 22.0898 12C22.0898 6.48 17.6098 2 12.0898 2ZM7.15984 18.28C7.58984 17.38 10.2098 16.5 12.0898 16.5C13.9698 16.5 16.5998 17.38 17.0198 18.28C15.6598 19.36 13.9498 20 12.0898 20C10.2298 20 8.51984 19.36 7.15984 18.28ZM12.0898 14.5C13.5498 14.5 17.0198 15.09 18.4498 16.83C19.4698 15.49 20.0898 13.82 20.0898 12C20.0898 7.59 16.4998 4 12.0898 4C7.67984 4 4.08984 7.59 4.08984 12C4.08984 13.82 4.70984 15.49 5.72984 16.83C7.15984 15.09 10.6298 14.5 12.0898 14.5ZM12.0898 6C10.1498 6 8.58984 7.56 8.58984 9.5C8.58984 11.44 10.1498 13 12.0898 13C14.0298 13 15.5898 11.44 15.5898 9.5C15.5898 7.56 14.0298 6 12.0898 6ZM10.5898 9.5C10.5898 10.33 11.2598 11 12.0898 11C12.9198 11 13.5898 10.33 13.5898 9.5C13.5898 8.67 12.9198 8 12.0898 8C11.2598 8 10.5898 8.67 10.5898 9.5Z" fill="#1EA0C8"/>
</svg>
