<svg width="24" height="25" viewBox="0 0 24 25" fill="none" xmlns="http://www.w3.org/2000/svg">
<path fill-rule="evenodd" clip-rule="evenodd" d="M17.5 3.85938C18.67 3.85938 19.89 4.00938 21 4.35938C21.75 4.60938 22.4 4.90937 23 5.35938V19.9594C23 20.2094 22.75 20.4594 22.5 20.4594C22.4 20.4594 22.35 20.4594 22.25 20.4094C20.85 19.6594 19.15 19.3594 17.5 19.3594C15.8 19.3594 13.35 20.0094 12 20.8594C10.55 19.7594 8.45 19.3594 6.5 19.3594C5.05 19.3594 3.1 19.8094 1.75 20.4594C1.7 20.4594 1.6625 20.4719 1.625 20.4844C1.5875 20.4969 1.55 20.5094 1.5 20.5094C1.25 20.5094 1 20.2594 1 20.0094V5.35938C2.45 4.25937 4.55 3.85938 6.5 3.85938C8.45 3.85938 10.55 4.25937 12 5.35938C13.45 4.25937 15.55 3.85938 17.5 3.85938ZM17.5 17.3594C18.7 17.3594 19.9 17.5094 21 17.8594V6.35938C19.9 6.00938 18.7 5.85938 17.5 5.85938C15.8 5.85938 13.35 6.50938 12 7.35938V18.8594C13.35 18.0094 15.8 17.3594 17.5 17.3594Z" fill="#1EA0C8"/>
</svg>
