<svg width="25" height="25" viewBox="0 0 25 25" fill="none" xmlns="http://www.w3.org/2000/svg">
<path fill-rule="evenodd" clip-rule="evenodd" d="M17.1445 5.35938H20.3145C21.4145 5.35938 22.3145 6.25938 22.3145 7.35938V19.3594C22.3145 20.4594 21.4145 21.3594 20.3145 21.3594H4.31445C3.21445 21.3594 2.31445 20.4594 2.31445 19.3594V7.35938C2.31445 6.25938 3.21445 5.35938 4.31445 5.35938H7.48445L9.31445 3.35938H15.3145L17.1445 5.35938ZM4.31445 19.3594H20.3145V7.35938H16.2645L14.4345 5.35938H10.1945L8.36445 7.35938H4.31445V19.3594ZM12.3145 8.35938C9.55445 8.35938 7.31445 10.5994 7.31445 13.3594C7.31445 16.1194 9.55445 18.3594 12.3145 18.3594C15.0745 18.3594 17.3145 16.1194 17.3145 13.3594C17.3145 10.5994 15.0745 8.35938 12.3145 8.35938ZM9.31445 13.3594C9.31445 15.0094 10.6645 16.3594 12.3145 16.3594C13.9645 16.3594 15.3145 15.0094 15.3145 13.3594C15.3145 11.7094 13.9645 10.3594 12.3145 10.3594C10.6645 10.3594 9.31445 11.7094 9.31445 13.3594Z" fill="#1EA0C8"/>
</svg>
