<svg width="25" height="25" viewBox="0 0 25 25" fill="none" xmlns="http://www.w3.org/2000/svg">
<path fill-rule="evenodd" clip-rule="evenodd" d="M13.8145 10.3594V2.35938C18.2345 2.35938 21.8145 5.93937 21.8145 10.3594H13.8145ZM15.8145 4.69937V8.35938H19.4745C18.8645 6.64937 17.5145 5.29938 15.8145 4.69937ZM7.25445 11.3594L6.30445 9.35938H2.81445V11.3594H5.03445C5.03445 11.3594 6.92445 15.4294 7.15445 15.7794C6.05445 16.3694 5.31445 17.5294 5.31445 18.8594C5.31445 20.7894 6.88445 22.3594 8.81445 22.3594C10.5745 22.3594 12.0345 21.0594 12.2745 19.3594H14.3545C14.5945 21.0594 16.0545 22.3594 17.8145 22.3594C19.7445 22.3594 21.3145 20.7894 21.3145 18.8594C21.3145 17.8194 20.8545 16.8894 20.1345 16.2494C21.1845 14.8994 21.8145 13.1994 21.8145 11.3594H7.25445ZM7.31445 18.8594C7.31445 19.6894 7.98445 20.3594 8.81445 20.3594C9.64445 20.3594 10.3145 19.6894 10.3145 18.8594C10.3145 18.0294 9.64445 17.3594 8.81445 17.3594C7.98445 17.3594 7.31445 18.0294 7.31445 18.8594ZM17.8145 20.3594C16.9845 20.3594 16.3145 19.6894 16.3145 18.8594C16.3145 18.0294 16.9845 17.3594 17.8145 17.3594C18.6445 17.3594 19.3145 18.0294 19.3145 18.8594C19.3145 19.6894 18.6445 20.3594 17.8145 20.3594ZM18.2645 15.3894L18.5545 15.0194C18.9545 14.5094 19.2645 13.9494 19.4745 13.3594H8.18445C8.3094 13.613 8.42144 13.8452 8.51787 14.045C8.67612 14.373 8.79232 14.6137 8.85445 14.7194L9.29445 15.3894C10.4745 15.5594 11.4745 16.3194 11.9745 17.3594H14.6545C15.2145 16.1794 16.4245 15.3594 17.8145 15.3594C17.9645 15.3594 18.1245 15.3694 18.2645 15.3894Z" fill="#1EA0C8"/>
</svg>
