<svg width="24" height="24" viewBox="0 0 24 24" fill="none" xmlns="http://www.w3.org/2000/svg">
<path d="M21 17.55C21 16.575 21.6 15.15 22.275 14.475L23.4 13.35C24.075 12.675 24.075 11.475 23.4 10.8L22.275 9.675C21.6 8.85 21 7.425 21 6.45V4.8C21 3.825 20.175 3 19.2 3H17.55C16.575 3 15.15 2.4 14.475 1.725L13.35 0.6C12.675 -0.075 11.475 -0.075 10.8 0.6L9.675 1.725C8.85 2.4 7.425 3 6.45 3H4.8C3.825 3 3 3.825 3 4.8V6.45C3 7.425 2.4 8.85 1.725 9.525L0.6 10.65C-0.075 11.325 -0.075 12.525 0.6 13.2L1.725 14.325C2.4 15.15 3 16.575 3 17.55V19.2C3 20.175 3.825 21 4.8 21H6.45C7.425 21 8.85 21.6 9.525 22.275L10.65 23.4C11.325 24.075 12.525 24.075 13.2 23.4L14.325 22.275C15 21.6 16.425 21 17.4 21H19.05C20.025 21 20.85 20.175 20.85 19.2C21 19.2 21 17.55 21 17.55Z" fill="#85C3D5"/>
</svg>
