<svg width="21" height="21" viewBox="0 0 21 21" fill="none" xmlns="http://www.w3.org/2000/svg">
<g clip-path="url(#clip0)">
<path d="M18.2292 15.4419C18.2292 14.6294 18.75 13.4419 19.336 12.8794L20.3125 11.9419C20.8985 11.3794 20.8985 10.3794 20.3125 9.81689L19.336 8.87939C18.75 8.19189 18.2292 7.00439 18.2292 6.19189V4.81689C18.2292 4.00439 17.5131 3.31689 16.6667 3.31689H15.2344C14.3881 3.31689 13.1511 2.81689 12.5651 2.25439L11.5886 1.31689C11.0026 0.754395 9.96098 0.754395 9.37504 1.31689L8.39848 2.25439C7.68233 2.81689 6.44535 3.31689 5.599 3.31689H4.16671C3.32035 3.31689 2.60421 4.00439 2.60421 4.81689V6.19189C2.60421 7.00439 2.08337 8.19189 1.49744 8.75439L0.520874 9.69189C-0.0650635 10.2544 -0.0650635 11.2544 0.520874 11.8169L1.49744 12.7544C2.08337 13.4419 2.60421 14.6294 2.60421 15.4419V16.8169C2.60421 17.6294 3.32035 18.3169 4.16671 18.3169H5.599C6.44535 18.3169 7.68233 18.8169 8.26827 19.3794L9.24483 20.3169C9.83077 20.8794 10.8724 20.8794 11.4584 20.3169L12.4349 19.3794C13.0209 18.8169 14.2579 18.3169 15.1042 18.3169H16.5365C17.3829 18.3169 18.099 17.6294 18.099 16.8169C18.2292 16.8169 18.2292 15.4419 18.2292 15.4419Z" fill="white"/>
</g>
<defs>
<clipPath id="clip0">
<rect width="20.8333" height="20" fill="white" transform="translate(0 0.816895)"/>
</clipPath>
</defs>
</svg>
