<svg width="25" height="25" viewBox="0 0 25 25" fill="none" xmlns="http://www.w3.org/2000/svg">
<g id="free_breakfast_24px">
<path id="icon/places/free_breakfast_24px" fill-rule="evenodd" clip-rule="evenodd" d="M3.68604 3.35938H19.686C20.796 3.35938 21.686 4.24937 21.686 5.35938V8.35938C21.686 9.45937 20.796 10.3594 19.686 10.3594H17.686V13.3594C17.686 15.5694 15.896 17.3594 13.686 17.3594H7.68604C5.47604 17.3594 3.68604 15.5694 3.68604 13.3594V3.35938ZM19.686 19.3594H3.68604V21.3594H19.686V19.3594ZM15.686 13.3594C15.686 14.4594 14.786 15.3594 13.686 15.3594H7.68604C6.58604 15.3594 5.68604 14.4594 5.68604 13.3594V5.35938H15.686V13.3594ZM17.686 8.35938H19.686V5.35938H17.686V8.35938Z" fill="#1EA0C8"/>
</g>
</svg>
