<svg width="25" height="25" viewBox="0 0 25 25" fill="none" xmlns="http://www.w3.org/2000/svg">
<circle cx="12.9746" cy="12.9741" r="12" fill="#1EA0C8"/>
<g clip-path="url(#clip0)">
<path d="M15.6759 6.97412H10.2733C8.45513 6.97412 6.97461 8.45464 6.97461 10.2728V15.6494C6.97461 17.4676 8.45513 18.9481 10.2733 18.9481H15.6499C17.4681 18.9481 18.9486 17.4676 18.9486 15.6494V10.2728C18.9746 8.45464 17.4941 6.97412 15.6759 6.97412ZM18.0136 15.6494C18.0136 16.9481 16.9486 18.0131 15.6499 18.0131H10.2993C9.00058 18.0131 7.93565 16.9481 7.93565 15.6494V10.2988C7.93565 9.0001 9.00058 7.93516 10.2993 7.93516H15.6499C16.9486 7.93516 18.0136 9.0001 18.0136 10.2988V15.6494Z" fill="white"/>
<path d="M12.9746 9.80542C11.2344 9.80542 9.80579 11.234 9.80579 12.9743C9.80579 14.7145 11.2344 16.1431 12.9746 16.1431C14.7149 16.1431 16.1434 14.7145 16.1434 12.9743C16.1434 11.234 14.7149 9.80542 12.9746 9.80542ZM12.9746 15.0262C11.8318 15.0262 10.9227 14.0911 10.9227 12.9743C10.9227 11.8314 11.8577 10.9223 12.9746 10.9223C14.0915 10.9223 15.0266 11.8574 15.0266 12.9743C15.0266 14.1171 14.1175 15.0262 12.9746 15.0262Z" fill="white"/>
<path d="M16.9486 9.7013C16.9486 10.0909 16.6369 10.4026 16.2473 10.4026C15.8577 10.4026 15.546 10.0909 15.546 9.7013C15.546 9.31169 15.8577 9 16.2473 9C16.6369 9 16.9486 9.31169 16.9486 9.7013Z" fill="white"/>
</g>
<defs>
<clipPath id="clip0">
<rect width="12" height="12" fill="white" transform="translate(6.97461 6.97412)"/>
</clipPath>
</defs>
</svg>
