<svg width="16" height="16" viewBox="0 0 16 16" fill="none" xmlns="http://www.w3.org/2000/svg">
<path fill-rule="evenodd" clip-rule="evenodd" d="M8.08243 2.04102C5.53415 2.04102 3.47314 3.93775 3.47314 6.28292C3.47314 9.46436 8.08243 14.1608 8.08243 14.1608C8.08243 14.1608 12.6917 9.46436 12.6917 6.28292C12.6917 3.93775 10.6307 2.04102 8.08243 2.04102ZM4.79008 6.28292C4.79008 4.6104 6.26505 3.25299 8.08243 3.25299C9.8998 3.25299 11.3748 4.6104 11.3748 6.28292C11.3748 8.02817 9.47838 10.64 8.08243 12.2701C6.71281 10.6521 4.79008 8.00999 4.79008 6.28292ZM6.43625 6.28292C6.43625 5.44623 7.17327 4.76796 8.08243 4.76796C8.67055 4.76796 9.21399 5.05671 9.50806 5.52544C9.80212 5.99417 9.80212 6.57167 9.50806 7.04041C9.21399 7.50914 8.67055 7.79789 8.08243 7.79789C7.17327 7.79789 6.43625 7.11962 6.43625 6.28292Z" fill="#10324F"/>
</svg>
