<svg width="25" height="25" viewBox="0 0 25 25" fill="none" xmlns="http://www.w3.org/2000/svg">
<path fill-rule="evenodd" clip-rule="evenodd" d="M12.51 13.9094L12.5 3.35938H18.5V7.35938H14.5V17.3594C14.5 19.5694 12.73 21.3594 10.51 21.3594C8.29 21.3594 6.5 19.5694 6.5 17.3594C6.5 15.1494 8.29 13.3594 10.51 13.3594C11.24 13.3594 11.92 13.5694 12.51 13.9094ZM8.51 17.3594C8.51 18.4594 9.41 19.3594 10.51 19.3594C11.61 19.3594 12.51 18.4594 12.51 17.3594C12.51 16.2594 11.61 15.3594 10.51 15.3594C9.41 15.3594 8.51 16.2594 8.51 17.3594Z" fill="#1EA0C8"/>
</svg>
