<svg width="24" height="25" viewBox="0 0 24 25" fill="none" xmlns="http://www.w3.org/2000/svg">
<g id="pets_24px">
<path id="icon/action/pets_24px" fill-rule="evenodd" clip-rule="evenodd" d="M9 2.85718C7.61929 2.85718 6.5 3.97647 6.5 5.35718C6.5 6.73789 7.61929 7.85718 9 7.85718C10.3807 7.85718 11.5 6.73789 11.5 5.35718C11.5 3.97647 10.3807 2.85718 9 2.85718ZM4.5 6.85718C3.11929 6.85718 2 7.97647 2 9.35718C2 10.7379 3.11929 11.8572 4.5 11.8572C5.88071 11.8572 7 10.7379 7 9.35718C7 7.97647 5.88071 6.85718 4.5 6.85718ZM12.5 5.35718C12.5 3.97647 13.6193 2.85718 15 2.85718C16.3807 2.85718 17.5 3.97647 17.5 5.35718C17.5 6.73789 16.3807 7.85718 15 7.85718C13.6193 7.85718 12.5 6.73789 12.5 5.35718ZM19.5 6.85718C18.1193 6.85718 17 7.97647 17 9.35718C17 10.7379 18.1193 11.8572 19.5 11.8572C20.8807 11.8572 22 10.7379 22 9.35718C22 7.97647 20.8807 6.85718 19.5 6.85718ZM16.4437 13.6627C16.7333 14.0041 17.0276 14.351 17.34 14.7172C17.4179 14.7951 17.4969 14.8735 17.5765 14.9525C18.8347 16.2017 20.2416 17.5985 19.95 19.5172C19.66 20.5272 18.93 21.5472 17.62 21.8372C17.284 21.9016 16.6092 21.8135 15.7368 21.6997C14.7136 21.5662 13.4187 21.3972 12.08 21.3972H11.9C10.5726 21.3972 9.28818 21.5662 8.26906 21.7003C7.38415 21.8168 6.69927 21.9069 6.36 21.8372C5.05 21.5472 4.32 20.5372 4.03 19.5172C3.74798 17.6088 5.15391 16.213 6.41175 14.9643C6.49193 14.8847 6.5715 14.8057 6.65 14.7272C7.21408 14.0734 7.71652 13.4812 8.23371 12.8716C8.52337 12.5302 8.81767 12.1834 9.13 11.8172C9.6 11.2772 10.18 10.7372 10.88 10.4972C10.99 10.4572 11.1 10.4272 11.21 10.4072C11.47 10.3572 11.74 10.3572 12 10.3572C12.26 10.3572 12.53 10.3572 12.78 10.3972C12.89 10.4172 13 10.4472 13.11 10.4872C13.81 10.7272 14.4 11.2672 14.86 11.8072C15.4241 12.461 15.9265 13.0531 16.4437 13.6627Z" fill="#1EA0C8"/>
</g>
</svg>
