<svg width="24" height="24" viewBox="0 0 24 24" fill="none" xmlns="http://www.w3.org/2000/svg">
<path d="M23.8892 20.7198L20.216 13.6947C22.7017 9.2118 21.017 3.58082 16.4876 1.14802C11.9583 -1.28478 6.26898 0.35531 3.81098 4.83822C2.292 7.59905 2.292 10.9339 3.81098 13.6947L0.082561 20.7198C-0.138383 21.1298 0.0273251 21.6218 0.441594 21.8132C0.63492 21.9225 0.855864 21.9225 1.07681 21.8678L3.67289 21.0478L4.86047 23.4806C4.99856 23.7539 5.27474 23.9453 5.57853 23.9453H5.60615C5.90995 23.9453 6.18613 23.7813 6.32422 23.5353L9.38981 18.1503C11.1021 18.6423 12.8973 18.6423 14.6096 18.1503L17.6476 23.5899C17.7857 23.8633 18.0618 24 18.3656 24H18.3933C18.6971 24 18.9732 23.8086 19.1113 23.5353L20.2713 21.1025L22.8674 21.9225C23.3093 22.0592 23.7788 21.8132 23.9168 21.3758C24.0273 21.1571 23.9997 20.9385 23.8892 20.7198Z" fill="#10324F"/>
</svg>
