<svg width="20" height="21" viewBox="0 0 20 21" fill="none" xmlns="http://www.w3.org/2000/svg">
<path d="M19.9079 17.7554L16.8469 11.9012C18.9183 8.16543 17.5143 3.47295 13.7399 1.44562C9.96544 -0.581719 5.22436 0.785024 3.17602 4.52079C1.9102 6.82147 1.9102 9.60051 3.17602 11.9012L0.0690043 17.7554C-0.115115 18.0971 0.0229743 18.5071 0.368199 18.6666C0.529303 18.7577 0.713423 18.7577 0.897543 18.7121L3.06095 18.0288L4.05059 20.0561C4.16567 20.2839 4.39582 20.4433 4.64898 20.4433H4.672C4.92516 20.4433 5.15531 20.3067 5.27039 20.1017L7.82505 15.6142C9.25197 16.0242 10.7479 16.0242 12.1749 15.6142L14.7065 20.1472C14.8216 20.375 15.0517 20.4889 15.3049 20.4889H15.3279C15.5811 20.4889 15.8112 20.3294 15.9263 20.1017L16.8929 18.0743L19.0563 18.7577C19.4246 18.8716 19.8158 18.6666 19.9309 18.3021C20.023 18.1199 20 17.9376 19.9079 17.7554Z" fill="white"/>
</svg>
