<svg width="24" height="25" viewBox="0 0 24 25" fill="none" xmlns="http://www.w3.org/2000/svg">
<path fill-rule="evenodd" clip-rule="evenodd" d="M14.9643 14.6627H15.7543L20.7443 19.6627L19.2543 21.1527L14.2543 16.1627V15.3727L13.9843 15.0927C12.8443 16.0727 11.3643 16.6627 9.75427 16.6627C6.16427 16.6627 3.25427 13.7527 3.25427 10.1627C3.25427 6.57266 6.16427 3.66266 9.75427 3.66266C13.3443 3.66266 16.2543 6.57266 16.2543 10.1627C16.2543 11.7727 15.6643 13.2527 14.6843 14.3927L14.9643 14.6627ZM5.25427 10.1627C5.25427 12.6527 7.26427 14.6627 9.75427 14.6627C12.2443 14.6627 14.2543 12.6527 14.2543 10.1627C14.2543 7.67266 12.2443 5.66266 9.75427 5.66266C7.26427 5.66266 5.25427 7.67266 5.25427 10.1627Z" fill="white"/>
</svg>
