<svg width="25" height="25" viewBox="0 0 25 25" fill="none" xmlns="http://www.w3.org/2000/svg">
<path fill-rule="evenodd" clip-rule="evenodd" d="M12.5632 2.67822C7.04324 2.67822 2.57324 7.14822 2.57324 12.6782C2.57324 18.2082 7.04324 22.6782 12.5632 22.6782C18.0832 22.6782 22.5732 18.2082 22.5732 12.6782C22.5732 7.14822 18.0932 2.67822 12.5632 2.67822ZM12.5732 20.6782C8.15324 20.6782 4.57324 17.0982 4.57324 12.6782C4.57324 8.25822 8.15324 4.67822 12.5732 4.67822C16.9932 4.67822 20.5732 8.25822 20.5732 12.6782C20.5732 17.0982 16.9932 20.6782 12.5732 20.6782ZM14.6332 11.6782L13.5732 10.6182L15.6932 8.49822L17.8132 10.6182L16.7532 11.6782L15.6932 10.6182L14.6332 11.6782ZM9.45324 10.6182L10.5132 11.6782L11.5732 10.6182L9.45324 8.49822L7.33324 10.6182L8.39324 11.6782L9.45324 10.6182ZM17.6832 14.6782C16.8832 16.7182 14.9032 18.1782 12.5732 18.1782C10.2432 18.1782 8.26324 16.7182 7.46324 14.6782H17.6832Z" fill="#1EA0C8"/>
</svg>
