<svg width="25" height="25" viewBox="0 0 25 25" fill="none" xmlns="http://www.w3.org/2000/svg">
<path fill-rule="evenodd" clip-rule="evenodd" d="M9.88324 9.67822H3.57324C2.47324 9.67822 1.57324 10.5782 1.57324 11.6782V13.6782C1.57324 13.9382 1.62324 14.1782 1.71324 14.4082L4.73324 21.4582C5.03324 22.1782 5.74324 22.6782 6.57324 22.6782H15.5732C16.6732 22.6782 17.5732 21.7782 17.5732 20.6782V10.6782C17.5732 10.1282 17.3532 9.62822 16.9832 9.26822L10.4032 2.67822L9.34324 3.72822C9.07324 3.99822 8.90324 4.37822 8.90324 4.78822L8.93324 5.10822L9.88324 9.67822ZM3.57324 13.6782L6.57324 20.6782H15.5732V10.6782L11.2332 6.33822L12.3432 11.6782H3.57324V13.6782ZM23.5732 10.6782H19.5732V22.6782H23.5732V10.6782Z" fill="#1EA0C8"/>
</svg>
