<svg width="25" height="25" viewBox="0 0 25 25" fill="none" xmlns="http://www.w3.org/2000/svg">
<path fill-rule="evenodd" clip-rule="evenodd" d="M15.5732 2.67822H6.57324C5.74324 2.67822 5.03324 3.17822 4.73324 3.89822L1.71324 10.9482C1.62324 11.1782 1.57324 11.4182 1.57324 11.6782V13.6782C1.57324 14.7782 2.47324 15.6782 3.57324 15.6782H9.88324L8.93324 20.2482L8.90324 20.5682C8.90324 20.9782 9.07324 21.3582 9.34324 21.6282L10.4032 22.6782L16.9832 16.0882C17.3532 15.7282 17.5732 15.2282 17.5732 14.6782V4.67822C17.5732 3.57822 16.6732 2.67822 15.5732 2.67822ZM15.5732 14.6782L11.2332 19.0182L12.3432 13.6782H3.57324V11.6782L6.57324 4.67822H15.5732V14.6782ZM23.5732 2.67822H19.5732V14.6782H23.5732V2.67822Z" fill="#1EA0C8"/>
</svg>
