<svg width="18" height="16" viewBox="0 0 18 16" fill="none" xmlns="http://www.w3.org/2000/svg">
<path d="M15.8467 1.63134C15.2828 1.51756 14.6217 1.59341 14.0189 1.82097C14.0189 1.49859 14.0189 1.17622 14.0189 0.872803H8.74944H3.49944C3.49944 1.17622 3.48 1.49859 3.49944 1.82097C2.87722 1.59341 2.23556 1.51756 1.67167 1.63134C0.816111 1.82097 0.252222 2.37091 0.0577776 3.20529C-0.195 4.30517 0.368889 5.55675 1.63278 6.73247C2.62444 7.66168 3.96611 8.43918 5.38556 8.91326C5.96889 9.72868 6.72722 10.3734 7.68 10.7717C7.54389 11.2647 7.05778 12.7059 5.87167 13.5782H8.74944H11.6272C10.4411 12.7059 9.955 11.2647 9.81889 10.7717C10.7717 10.3734 11.53 9.72868 12.1133 8.91326C13.5328 8.43918 14.8744 7.66168 15.8661 6.73247C17.13 5.55675 17.6939 4.30517 17.4411 3.20529C17.2467 2.37091 16.6828 1.82097 15.8467 1.63134ZM2.46889 5.86016C1.555 5.00681 1.10778 4.11553 1.24389 3.47078C1.34111 3.09151 1.53556 2.88292 1.905 2.7881C2.39111 2.69328 3.01333 2.84499 3.53833 3.1484C3.655 4.51376 3.92722 5.93601 4.45222 7.20656C3.71333 6.84625 3.03278 6.39113 2.46889 5.86016ZM15.03 5.86016C14.4661 6.37217 13.7856 6.84625 13.0467 7.22552C13.5717 5.95498 13.8439 4.53273 13.9606 3.16737C14.4856 2.84499 15.1078 2.69328 15.5939 2.80706C15.9633 2.88292 16.1772 3.09151 16.255 3.48974C16.3911 4.11553 15.9439 5.00681 15.03 5.86016Z" fill="#10324F"/>
<path d="M12.4444 14.3179H5.05554V15.8729H12.4444V14.3179Z" fill="#10324F"/>
</svg>
